<!DOCTYPE svg PUBLIC "-//W3C//DTD SVG 1.1//EN" "https://www.w3.org/Graphics/SVG/1.1/DTD/svg11.dtd"><svg xmlns="http://www.w3.org/2000/svg" id="sfn-svg" class="sfn-workflow-graph" width="662" height="379">
    
    
<g transform="translate(12,19.61328125)"><g class="nodes"><g class="node-container" transform="translate(318.5390625,18.25)"><g class="node anchor"><circle class="shape" x="-15.86328125" y="-8.25" r="25.86328125"/><text class="label"><tspan xml:space="preserve" text-anchor="middle" alignment-baseline="central">Start</tspan></text></g></g><g class="node-container" transform="translate(333.5390625,324.302001953125)"><g class="node anchor"><circle class="shape" x="-12.17578125" y="-8.25" r="22.17578125"/><text class="label"><tspan xml:space="preserve" text-anchor="middle" alignment-baseline="central">End</tspan></text></g></g><g class="node-container" transform="translate(318.5390625,109.75)"><g class="node state Parallel NotYetStarted Container" transform="translate(-318.5390625,-48.25)"><rect class="shape" rx="19.3" ry="19.3" x="0" y="0" width="637.078125" height="96.5"/><g class="branches" transform="translate(20,40)"><g class="branch" transform="translate(0,0)"><g class="nodes"><g class="node-container" transform="translate(66.91015625,18.25)"><g class="node state Task NotYetStarted"><rect class="shape" rx="5" ry="5" x="-66.91015625" y="-18.25" width="133.8203125" height="36.5"/><text class="label"><tspan xml:space="preserve" text-anchor="middle" alignment-baseline="central">Calculate Metric 1</tspan></text></g></g></g><g class="edges"/></g><g class="branch" transform="translate(153.8203125,0)"><g class="nodes"><g class="node-container" transform="translate(66.91015625,18.25)"><g class="node state Task NotYetStarted"><rect class="shape" rx="5" ry="5" x="-66.91015625" y="-18.25" width="133.8203125" height="36.5"/><text class="label"><tspan xml:space="preserve" text-anchor="middle" alignment-baseline="central">Calculate Metric 2</tspan></text></g></g></g><g class="edges"/></g><g class="branch" transform="translate(307.640625,0)"><g class="nodes"><g class="node-container" transform="translate(66.91015625,18.25)"><g class="node state Task NotYetStarted"><rect class="shape" rx="5" ry="5" x="-66.91015625" y="-18.25" width="133.8203125" height="36.5"/><text class="label"><tspan xml:space="preserve" text-anchor="middle" alignment-baseline="central">Calculate Metric 3</tspan></text></g></g></g><g class="edges"/></g><g class="branch" transform="translate(461.4609375,0)"><g class="nodes"><g class="node-container" transform="translate(67.80859375,18.25)"><g class="node state Task NotYetStarted"><rect class="shape" rx="5" ry="5" x="-67.80859375" y="-18.25" width="135.6171875" height="36.5"/><text class="label"><tspan xml:space="preserve" text-anchor="middle" alignment-baseline="central">Calculate Metric N</tspan></text></g></g></g><g class="edges"/></g></g><path class="path" marker-end="url(#arrowhead334)" d="M318.5390625,0L318.5390625,3.333333333333333C318.5390625,6.666666666666666,318.5390625,13.333333333333332,279.9342447916667,16.666666666666664C241.32942708333334,20,164.11979166666666,20,125.51497395833333,23.33333333333333C86.91015625,26.666666666666664,86.91015625,33.33333333333333,86.91015625,36.666666666666664L86.91015625,40" style="fill: none;"/><path class="path" marker-end="url(#arrowhead335)" d="M318.5390625,0L318.5390625,3.333333333333333C318.5390625,6.666666666666666,318.5390625,13.333333333333332,305.5709635416667,16.666666666666664C292.6028645833333,20,266.66666666666663,20,253.69856770833331,23.33333333333333C240.73046875,26.666666666666664,240.73046875,33.33333333333333,240.73046874999997,36.666666666666664L240.73046875,40" style="fill: none;"/><path class="path" marker-end="url(#arrowhead336)" d="M318.5390625,0L318.5390625,3.333333333333333C318.5390625,6.666666666666666,318.5390625,13.333333333333332,331.20768229166663,16.666666666666664C343.8763020833333,20,369.21354166666663,20,381.88216145833326,23.33333333333333C394.55078124999994,26.666666666666664,394.55078124999994,33.33333333333333,394.5507812499999,36.666666666666664L394.55078125,40" style="fill: none;"/><path class="path" marker-end="url(#arrowhead337)" d="M318.5390625,0L318.5390625,3.333333333333333C318.5390625,6.666666666666666,318.5390625,13.333333333333332,356.994140625,16.666666666666664C395.44921875,20,472.359375,20,510.814453125,23.33333333333333C549.26953125,26.666666666666664,549.26953125,33.33333333333333,549.26953125,36.666666666666664L549.26953125,40" style="fill: none;"/></g></g><g class="node-container" transform="translate(273.537109375,201.2760009765625)"><g class="node state Task NotYetStarted"><rect class="shape" rx="5" ry="5" x="-55.00390625" y="-18.2760009765625" width="110.0078125" height="36.552001953125"/><text class="label"><tspan xml:space="preserve" text-anchor="middle" alignment-baseline="central">Merge metrics</tspan></text></g></g><g class="node-container" transform="translate(387.326171875,262.802001953125)"><g class="node state Task NotYetStarted"><rect class="shape" rx="5" ry="5" x="-72.57421875" y="-18.25" width="145.1484375" height="36.5"/><text class="label"><tspan xml:space="preserve" text-anchor="middle" alignment-baseline="central">Report Issue to SNS</tspan></text></g></g></g><g class="edges"><g class="edge"><path class="path" marker-end="url(#arrowhead338)" d="M282.79677051183126,158L281.2534936556927,160.08333333333331C279.71021679955413,162.16666666666666,276.62366308727707,166.33333333333331,275.08038623113856,170.5C273.537109375,174.66666666666666,273.537109375,178.83333333333331,273.537109375,180.91666666666666L273.537109375,183" style="fill: none;"/><defs><marker id="arrowhead338" viewBox="0 0 10 10" refX="9" refY="5" markerUnits="strokeWidth" markerWidth="8" markerHeight="6" orient="auto"><path d="M 0 0 L 10 5 L 0 10 z"/></marker></defs></g><g class="edge"><path class="path" marker-end="url(#arrowhead339)" d="M361.2588654192387,158L363.1034164951989,160.08333333333331C364.9479675711591,162.16666666666666,368.63706972307955,166.33333333333331,370.4816207990398,173.5460001627604C372.326171875,180.7586669921875,372.326171875,191.017333984375,372.326171875,201.27600097656247C372.326171875,211.53466796875,372.326171875,221.7933349609375,373.3424320376016,229.00600179036456C374.3586922002032,236.21866861979166,376.3912125254065,240.38533528645831,377.40747268800817,242.46866861979166L378.4237328506098,244.552001953125" style="fill: none;"/><defs><marker id="arrowhead339" viewBox="0 0 10 10" refX="9" refY="5" markerUnits="strokeWidth" markerWidth="8" markerHeight="6" orient="auto"><path d="M 0 0 L 10 5 L 0 10 z"/></marker></defs></g><g class="edge"><path class="path" marker-end="url(#arrowhead340)" d="M318.5390625,44.11328125L318.5390625,44.92773437499999C318.5390625,45.7421875,318.5390625,47.37109375,318.5390625,50.26888020833333C318.5390625,53.166666666666664,318.5390625,57.33333333333333,318.5390625,59.416666666666664L318.5390625,61.5" style="fill: none;"/><defs><marker id="arrowhead340" viewBox="0 0 10 10" refX="9" refY="5" markerUnits="strokeWidth" markerWidth="8" markerHeight="6" orient="auto"><path d="M 0 0 L 10 5 L 0 10 z"/></marker></defs></g><g class="edge"><path class="path" marker-end="url(#arrowhead341)" d="M328.541015625,214.41997640122057L340.83854166666663,217.35864732653798C353.1360677083333,220.29731825185536,377.73111979166663,226.17466010249018,389.01238567073165,231.1966643611409C400.29365154979666,236.21866861979166,398.26113122459344,240.38533528645831,397.24487106199183,242.46866861979166L396.2286108993902,244.552001953125" style="fill: none;"/><defs><marker id="arrowhead341" viewBox="0 0 10 10" refX="9" refY="5" markerUnits="strokeWidth" markerWidth="8" markerHeight="6" orient="auto"><path d="M 0 0 L 10 5 L 0 10 z"/></marker></defs></g><g class="edge"><path class="path" marker-end="url(#arrowhead342)" d="M273.537109375,219.552001953125L273.537109375,221.6353352864583C273.537109375,223.71866861979163,273.537109375,227.88533528645831,273.537109375,235.09366861979166C273.537109375,242.302001953125,273.537109375,252.552001953125,273.537109375,262.802001953125C273.537109375,273.052001953125,273.537109375,283.302001953125,280.24825177574564,291.8663504755474C286.9593941764913,300.43069899796984,300.3816789779826,307.3093960428147,307.0928213787282,310.74874456523713L313.80396377947386,314.1880930876596" style="fill: none;"/><defs><marker id="arrowhead342" viewBox="0 0 10 10" refX="9" refY="5" markerUnits="strokeWidth" markerWidth="8" markerHeight="6" orient="auto"><path d="M 0 0 L 10 5 L 0 10 z"/></marker></defs></g><g class="edge"><path class="path" marker-end="url(#arrowhead343)" d="M387.326171875,281.052001953125L387.3261718749999,283.1353352864583C387.32617187499994,285.21866861979163,387.32617187499994,289.3853352864583,381.57027573991394,294.7593047631082C375.81437960482793,300.13327423975807,364.302587334656,306.71454652639113,358.54669119957,310.00518266970766L352.790795064484,313.2958188130242" style="fill: none;"/><defs><marker id="arrowhead343" viewBox="0 0 10 10" refX="9" refY="5" markerUnits="strokeWidth" markerWidth="8" markerHeight="6" orient="auto"><path d="M 0 0 L 10 5 L 0 10 z"/></marker></defs></g></g></g><style xmlns="http://www.w3.org/1999/xhtml">.node &gt; .shape {stroke: #555555;stroke-width: 0.6px;fill: #FFFFFF;} path {stroke: #555;background-color: #555;stroke-width: 1px;} .node.state.NotYetStarted &gt; .shape,.node.state.Container &gt; .shape {stroke-dasharray: 5 2;} .node.state.Failed &gt; .shape,rect.legend.Failed {fill: #DE322F;} .node.state.CaughtError &gt; .shape,rect.legend.CaughtError {fill: #FFA500;} .node.state.Succeeded &gt; .shape,rect.legend.Succeeded {fill: #2BD62E;} .node.state.InProgress &gt; .shape,rect.legend.InProgress {fill: #53c9ed;} .node.state.Cancelled &gt; .shape,rect.legend.Cancelled {fill: #dddddd;} .node.anchor &gt; .shape {fill: #FFDA75;} .node.state.hovered:not(.selected):not(.NotYetStarted) &gt; .shape,.node.selected &gt; .shape {stroke: #555555;stroke-width: 2px;} .node.state.Container.Failed &gt; .shape {fill: #EE9592;} .node.state.Container.CaughtError &gt; .shape {fill: #FFD27F;} .node.state.Container.Succeeded &gt; .shape {fill: #91EA9A;} .node.state.Container.InProgress &gt; .shape {fill :#A9E4F7;} .node.state.Container.Cancelled &gt; .shape {fill: #EEEEEE;} marker {fill: #555555;} .node.anchor,.node.state.NotYetStarted {cursor: default;} .node.state {cursor: pointer;} tspan .label {font-weight: normal;font-size: 12px;text-shadow: none;} </style></svg>