<!DOCTYPE svg PUBLIC "-//W3C//DTD SVG 1.1//EN" "https://www.w3.org/Graphics/SVG/1.1/DTD/svg11.dtd"><svg xmlns="http://www.w3.org/2000/svg" id="sfn-svg" class="sfn-workflow-graph" width="160" height="442">
    
    
<g transform="translate(12,19.61328125)"><g class="nodes"><g class="node-container" transform="translate(67.80859375,18.25)"><g class="node anchor"><circle class="shape" x="-15.86328125" y="-8.25" r="25.86328125"/><text class="label"><tspan xml:space="preserve" text-anchor="middle" alignment-baseline="central">Start</tspan></text></g></g><g class="node-container" transform="translate(67.80859375,387.302001953125)"><g class="node anchor"><circle class="shape" x="-12.17578125" y="-8.25" r="22.17578125"/><text class="label"><tspan xml:space="preserve" text-anchor="middle" alignment-baseline="central">End</tspan></text></g></g><g class="node-container" transform="translate(67.80859375,79.75)"><g class="node state Task NotYetStarted"><rect class="shape" rx="5" ry="5" x="-66.91015625" y="-18.25" width="133.8203125" height="36.5"/><text class="label"><tspan xml:space="preserve" text-anchor="middle" alignment-baseline="central">Calculate Metric 1</tspan></text></g></g><g class="node-container" transform="translate(67.80859375,141.25)"><g class="node state Task NotYetStarted"><rect class="shape" rx="5" ry="5" x="-66.91015625" y="-18.25" width="133.8203125" height="36.5"/><text class="label"><tspan xml:space="preserve" text-anchor="middle" alignment-baseline="central">Calculate Metric 2</tspan></text></g></g><g class="node-container" transform="translate(67.80859375,202.75)"><g class="node state Task NotYetStarted"><rect class="shape" rx="5" ry="5" x="-66.91015625" y="-18.25" width="133.8203125" height="36.5"/><text class="label"><tspan xml:space="preserve" text-anchor="middle" alignment-baseline="central">Calculate Metric 3</tspan></text></g></g><g class="node-container" transform="translate(67.80859375,264.25)"><g class="node state Task NotYetStarted"><rect class="shape" rx="5" ry="5" x="-67.80859375" y="-18.25" width="135.6171875" height="36.5"/><text class="label"><tspan xml:space="preserve" text-anchor="middle" alignment-baseline="central">Calculate Metric N</tspan></text></g></g><g class="node-container" transform="translate(67.80859375,325.7760009765625)"><g class="node state Task NotYetStarted"><rect class="shape" rx="5" ry="5" x="-55.00390625" y="-18.2760009765625" width="110.0078125" height="36.552001953125"/><text class="label"><tspan xml:space="preserve" text-anchor="middle" alignment-baseline="central">Merge metrics</tspan></text></g></g></g><g class="edges"><g class="edge"><path class="path" marker-end="url(#arrowhead42)" d="M67.80859375,98L67.80859375,100.08333333333331C67.80859375,102.16666666666666,67.80859375,106.33333333333331,67.80859375,110.49999999999999C67.80859375,114.66666666666666,67.80859375,118.83333333333333,67.80859375,120.91666666666666L67.80859375,123" style="fill: none;"/><defs><marker id="arrowhead42" viewBox="0 0 10 10" refX="9" refY="5" markerUnits="strokeWidth" markerWidth="8" markerHeight="6" orient="auto"><path d="M 0 0 L 10 5 L 0 10 z"/></marker></defs></g><g class="edge"><path class="path" marker-end="url(#arrowhead43)" d="M67.80859375,44.11328125L67.80859375,44.92773437499999C67.80859375,45.7421875,67.80859375,47.37109375,67.80859375,50.26888020833333C67.80859375,53.166666666666664,67.80859375,57.33333333333333,67.80859375,59.416666666666664L67.80859375,61.5" style="fill: none;"/><defs><marker id="arrowhead43" viewBox="0 0 10 10" refX="9" refY="5" markerUnits="strokeWidth" markerWidth="8" markerHeight="6" orient="auto"><path d="M 0 0 L 10 5 L 0 10 z"/></marker></defs></g><g class="edge"><path class="path" marker-end="url(#arrowhead44)" d="M67.80859375,159.5L67.80859375,161.58333333333331C67.80859375,163.66666666666666,67.80859375,167.83333333333331,67.80859375,172C67.80859375,176.16666666666666,67.80859375,180.33333333333331,67.80859375,182.41666666666666L67.80859375,184.5" style="fill: none;"/><defs><marker id="arrowhead44" viewBox="0 0 10 10" refX="9" refY="5" markerUnits="strokeWidth" markerWidth="8" markerHeight="6" orient="auto"><path d="M 0 0 L 10 5 L 0 10 z"/></marker></defs></g><g class="edge"><path class="path" marker-end="url(#arrowhead45)" d="M67.80859375,221L67.80859375,223.0833333333333C67.80859375,225.16666666666663,67.80859375,229.33333333333331,67.80859375,233.5C67.80859375,237.66666666666666,67.80859375,241.83333333333331,67.80859375,243.91666666666666L67.80859375,246" style="fill: none;"/><defs><marker id="arrowhead45" viewBox="0 0 10 10" refX="9" refY="5" markerUnits="strokeWidth" markerWidth="8" markerHeight="6" orient="auto"><path d="M 0 0 L 10 5 L 0 10 z"/></marker></defs></g><g class="edge"><path class="path" marker-end="url(#arrowhead46)" d="M67.80859375,282.5L67.80859375,284.5833333333333C67.80859375,286.66666666666663,67.80859375,290.8333333333333,67.80859375,295C67.80859375,299.16666666666663,67.80859375,303.3333333333333,67.80859375,305.41666666666663L67.80859375,307.5" style="fill: none;"/><defs><marker id="arrowhead46" viewBox="0 0 10 10" refX="9" refY="5" markerUnits="strokeWidth" markerWidth="8" markerHeight="6" orient="auto"><path d="M 0 0 L 10 5 L 0 10 z"/></marker></defs></g><g class="edge"><path class="path" marker-end="url(#arrowhead47)" d="M67.80859375,344.052001953125L67.80859375,346.1353352864583C67.80859375,348.21866861979163,67.80859375,352.3853352864583,67.80859375,355.897705078125C67.80859375,359.41007486979163,67.80859375,362.2681477864583,67.80859375,363.6971842447917L67.80859375,365.126220703125" style="fill: none;"/><defs><marker id="arrowhead47" viewBox="0 0 10 10" refX="9" refY="5" markerUnits="strokeWidth" markerWidth="8" markerHeight="6" orient="auto"><path d="M 0 0 L 10 5 L 0 10 z"/></marker></defs></g></g></g><style xmlns="http://www.w3.org/1999/xhtml">.node &gt; .shape {stroke: #555555;stroke-width: 0.6px;fill: #FFFFFF;} path {stroke: #555;background-color: #555;stroke-width: 1px;} .node.state.NotYetStarted &gt; .shape,.node.state.Container &gt; .shape {stroke-dasharray: 5 2;} .node.state.Failed &gt; .shape,rect.legend.Failed {fill: #DE322F;} .node.state.CaughtError &gt; .shape,rect.legend.CaughtError {fill: #FFA500;} .node.state.Succeeded &gt; .shape,rect.legend.Succeeded {fill: #2BD62E;} .node.state.InProgress &gt; .shape,rect.legend.InProgress {fill: #53c9ed;} .node.state.Cancelled &gt; .shape,rect.legend.Cancelled {fill: #dddddd;} .node.anchor &gt; .shape {fill: #FFDA75;} .node.state.hovered:not(.selected):not(.NotYetStarted) &gt; .shape,.node.selected &gt; .shape {stroke: #555555;stroke-width: 2px;} .node.state.Container.Failed &gt; .shape {fill: #EE9592;} .node.state.Container.CaughtError &gt; .shape {fill: #FFD27F;} .node.state.Container.Succeeded &gt; .shape {fill: #91EA9A;} .node.state.Container.InProgress &gt; .shape {fill :#A9E4F7;} .node.state.Container.Cancelled &gt; .shape {fill: #EEEEEE;} marker {fill: #555555;} .node.anchor,.node.state.NotYetStarted {cursor: default;} .node.state {cursor: pointer;} tspan .label {font-weight: normal;font-size: 12px;text-shadow: none;} </style></svg>