<!DOCTYPE svg PUBLIC "-//W3C//DTD SVG 1.1//EN" "https://www.w3.org/Graphics/SVG/1.1/DTD/svg11.dtd"><svg xmlns="http://www.w3.org/2000/svg" id="sfn-svg" class="sfn-workflow-graph" width="928" height="443">
    
    
<g transform="translate(12,19.3671875)"><g class="nodes"><g class="node-container" transform="translate(451.8359375,18.5)"><g class="node anchor"><circle class="shape" x="-15.8671875" y="-8.5" r="25.8671875"/><text class="label"><tspan xml:space="preserve" text-anchor="middle" alignment-baseline="central">Start</tspan></text></g></g><g class="node-container" transform="translate(451.8359375,388.60400390625)"><g class="node anchor"><circle class="shape" x="-12.1796875" y="-8.5" r="22.1796875"/><text class="label"><tspan xml:space="preserve" text-anchor="middle" alignment-baseline="central">End</tspan></text></g></g><g class="node-container" transform="translate(451.8359375,141.5)"><g class="node state Parallel NotYetStarted Container" transform="translate(-451.8359375,-79.5)"><rect class="shape" rx="31.8" ry="31.8" x="0" y="0" width="903.671875" height="159"/><g class="branches" transform="translate(20,40)"><g class="branch" transform="translate(0,0)"><g class="nodes"><g class="node-container" transform="translate(100.234375,18.5)"><g class="node state Task NotYetStarted"><rect class="shape" rx="5" ry="5" x="-66.9140625" y="-18.5" width="133.828125" height="37"/><text class="label"><tspan xml:space="preserve" text-anchor="middle" alignment-baseline="central">Calculate Metric 1</tspan></text></g></g><g class="node-container" transform="translate(100.234375,80.5)"><g class="node state Task NotYetStarted"><rect class="shape" rx="5" ry="5" x="-100.234375" y="-18.5" width="200.46875" height="37"/><text class="label"><tspan xml:space="preserve" text-anchor="middle" alignment-baseline="central">Report Metric 1 Issue to SNS</tspan></text></g></g></g><g class="edges"><g class="edge"><path class="path" marker-end="url(#arrowhead2713)" d="M100.234375,37L100.23437499999997,39.08333333333333C100.23437499999999,41.166666666666664,100.23437499999999,45.33333333333333,100.23437499999997,49.5C100.23437499999999,53.666666666666664,100.23437499999999,57.83333333333333,100.23437499999997,59.91666666666666L100.234375,62" style="fill: none;"/><defs><marker id="arrowhead2713" viewBox="0 0 10 10" refX="9" refY="5" markerUnits="strokeWidth" markerWidth="8" markerHeight="6" orient="auto"><path d="M 0 0 L 10 5 L 0 10 z"/></marker></defs></g></g></g><g class="branch" transform="translate(220.46875,0)"><g class="nodes"><g class="node-container" transform="translate(100.234375,18.5)"><g class="node state Task NotYetStarted"><rect class="shape" rx="5" ry="5" x="-66.9140625" y="-18.5" width="133.828125" height="37"/><text class="label"><tspan xml:space="preserve" text-anchor="middle" alignment-baseline="central">Calculate Metric 2</tspan></text></g></g><g class="node-container" transform="translate(100.234375,80.5)"><g class="node state Task NotYetStarted"><rect class="shape" rx="5" ry="5" x="-100.234375" y="-18.5" width="200.46875" height="37"/><text class="label"><tspan xml:space="preserve" text-anchor="middle" alignment-baseline="central">Report Metric 2 Issue to SNS</tspan></text></g></g></g><g class="edges"><g class="edge"><path class="path" marker-end="url(#arrowhead2714)" d="M100.234375,37L100.23437499999997,39.08333333333333C100.23437499999999,41.166666666666664,100.23437499999999,45.33333333333333,100.23437499999997,49.5C100.23437499999999,53.666666666666664,100.23437499999999,57.83333333333333,100.23437499999997,59.91666666666666L100.234375,62" style="fill: none;"/><defs><marker id="arrowhead2714" viewBox="0 0 10 10" refX="9" refY="5" markerUnits="strokeWidth" markerWidth="8" markerHeight="6" orient="auto"><path d="M 0 0 L 10 5 L 0 10 z"/></marker></defs></g></g></g><g class="branch" transform="translate(440.9375,0)"><g class="nodes"><g class="node-container" transform="translate(100.234375,18.5)"><g class="node state Task NotYetStarted"><rect class="shape" rx="5" ry="5" x="-66.9140625" y="-18.5" width="133.828125" height="37"/><text class="label"><tspan xml:space="preserve" text-anchor="middle" alignment-baseline="central">Calculate Metric 3</tspan></text></g></g><g class="node-container" transform="translate(100.234375,80.5)"><g class="node state Task NotYetStarted"><rect class="shape" rx="5" ry="5" x="-100.234375" y="-18.5" width="200.46875" height="37"/><text class="label"><tspan xml:space="preserve" text-anchor="middle" alignment-baseline="central">Report Metric 3 Issue to SNS</tspan></text></g></g></g><g class="edges"><g class="edge"><path class="path" marker-end="url(#arrowhead2715)" d="M100.234375,37L100.23437499999997,39.08333333333333C100.23437499999999,41.166666666666664,100.23437499999999,45.33333333333333,100.23437499999997,49.5C100.23437499999999,53.666666666666664,100.23437499999999,57.83333333333333,100.23437499999997,59.91666666666666L100.234375,62" style="fill: none;"/><defs><marker id="arrowhead2715" viewBox="0 0 10 10" refX="9" refY="5" markerUnits="strokeWidth" markerWidth="8" markerHeight="6" orient="auto"><path d="M 0 0 L 10 5 L 0 10 z"/></marker></defs></g></g></g><g class="branch" transform="translate(661.40625,0)"><g class="nodes"><g class="node-container" transform="translate(101.1328125,18.5)"><g class="node state Task NotYetStarted"><rect class="shape" rx="5" ry="5" x="-67.8125" y="-18.5" width="135.625" height="37"/><text class="label"><tspan xml:space="preserve" text-anchor="middle" alignment-baseline="central">Calculate Metric N</tspan></text></g></g><g class="node-container" transform="translate(101.1328125,80.5)"><g class="node state Task NotYetStarted"><rect class="shape" rx="5" ry="5" x="-101.1328125" y="-18.5" width="202.265625" height="37"/><text class="label"><tspan xml:space="preserve" text-anchor="middle" alignment-baseline="central">Report Metric N Issue to SNS</tspan></text></g></g></g><g class="edges"><g class="edge"><path class="path" marker-end="url(#arrowhead2716)" d="M101.1328125,37L101.1328125,39.08333333333333C101.1328125,41.166666666666664,101.1328125,45.33333333333333,101.1328125,49.5C101.1328125,53.666666666666664,101.1328125,57.83333333333333,101.1328125,59.91666666666666L101.1328125,62" style="fill: none;"/><defs><marker id="arrowhead2716" viewBox="0 0 10 10" refX="9" refY="5" markerUnits="strokeWidth" markerWidth="8" markerHeight="6" orient="auto"><path d="M 0 0 L 10 5 L 0 10 z"/></marker></defs></g></g></g></g><path class="path" marker-end="url(#arrowhead2717)" d="M451.8359375,0L451.83593749999994,3.333333333333333C451.8359375,6.666666666666666,451.8359375,13.333333333333332,396.56901041666663,16.666666666666664C341.3020833333333,20,230.76822916666666,20,175.50130208333331,23.33333333333333C120.234375,26.666666666666664,120.234375,33.33333333333333,120.234375,36.666666666666664L120.234375,40" style="fill: none;"/><path class="path" marker-end="url(#arrowhead2718)" d="M451.8359375,0L451.83593749999994,3.333333333333333C451.8359375,6.666666666666666,451.8359375,13.333333333333332,433.3138020833333,16.666666666666664C414.79166666666663,20,377.7473958333333,20,359.2252604166667,23.33333333333333C340.703125,26.666666666666664,340.703125,33.33333333333333,340.703125,36.666666666666664L340.703125,40" style="fill: none;"/><path class="path" marker-end="url(#arrowhead2719)" d="M451.8359375,0L451.83593749999994,3.333333333333333C451.8359375,6.666666666666666,451.8359375,13.333333333333332,470.05859374999994,16.666666666666664C488.28125,20,524.7265625,20,542.94921875,23.33333333333333C561.171875,26.666666666666664,561.171875,33.33333333333333,561.171875,36.666666666666664L561.171875,40" style="fill: none;"/><path class="path" marker-end="url(#arrowhead2720)" d="M451.8359375,0L451.83593749999994,3.333333333333333C451.8359375,6.666666666666666,451.8359375,13.333333333333332,506.95312499999994,16.666666666666664C562.0703125,20,672.3046874999999,20,727.421875,23.33333333333333C782.5390624999999,26.666666666666664,782.5390624999999,33.33333333333333,782.5390624999998,36.666666666666664L782.5390625,40" style="fill: none;"/></g></g><g class="node-container" transform="translate(451.8359375,264.5260009765625)"><g class="node state Task NotYetStarted"><rect class="shape" rx="5" ry="5" x="-54.6328125" y="-18.5260009765625" width="109.265625" height="37.052001953125"/><text class="label"><tspan xml:space="preserve" text-anchor="middle" alignment-baseline="central">Merge Metrics</tspan></text></g></g><g class="node-container" transform="translate(528.85546875,326.5780029296875)"><g class="node state Task NotYetStarted"><rect class="shape" rx="5" ry="5" x="-119.0390625" y="-18.5260009765625" width="238.078125" height="37.052001953125"/><text class="label"><tspan xml:space="preserve" text-anchor="middle" alignment-baseline="central">Report Merge Metrics Issue to SNS</tspan></text></g></g></g><g class="edges"><g class="edge"><path class="path" marker-end="url(#arrowhead2721)" d="M451.8359375,221L451.83593749999994,223.0833333333333C451.8359375,225.16666666666663,451.8359375,229.33333333333331,451.83593749999994,233.5C451.8359375,237.66666666666666,451.8359375,241.83333333333331,451.83593749999994,243.91666666666666L451.8359375,246" style="fill: none;"/><defs><marker id="arrowhead2721" viewBox="0 0 10 10" refX="9" refY="5" markerUnits="strokeWidth" markerWidth="8" markerHeight="6" orient="auto"><path d="M 0 0 L 10 5 L 0 10 z"/></marker></defs></g><g class="edge"><path class="path" marker-end="url(#arrowhead2722)" d="M451.8359375,44.3671875L451.83593749999994,45.22265625C451.8359375,46.078125,451.8359375,47.7890625,451.83593749999994,50.72786458333333C451.8359375,53.666666666666664,451.8359375,57.83333333333333,451.83593749999994,59.91666666666666L451.8359375,62" style="fill: none;"/><defs><marker id="arrowhead2722" viewBox="0 0 10 10" refX="9" refY="5" markerUnits="strokeWidth" markerWidth="8" markerHeight="6" orient="auto"><path d="M 0 0 L 10 5 L 0 10 z"/></marker></defs></g><g class="edge"><path class="path" marker-end="url(#arrowhead2723)" d="M497.82523248615564,283.052001953125L502.9969385301297,285.1353352864583C508.1686445741037,287.21866861979163,518.5120566620519,291.3853352864583,523.683762706026,295.552001953125C528.85546875,299.71866861979163,528.85546875,303.8853352864583,528.85546875,305.96866861979163L528.85546875,308.052001953125" style="fill: none;"/><defs><marker id="arrowhead2723" viewBox="0 0 10 10" refX="9" refY="5" markerUnits="strokeWidth" markerWidth="8" markerHeight="6" orient="auto"><path d="M 0 0 L 10 5 L 0 10 z"/></marker></defs></g><g class="edge"><path class="path" marker-end="url(#arrowhead2724)" d="M405.84664251384436,283.052001953125L400.6749364698703,285.1353352864583C395.5032304258962,287.21866861979163,385.1598183379481,291.3853352864583,379.9881122939741,298.63966878255206C374.81640625,305.8940022786458,374.81640625,316.23600260416663,374.81640625,326.57800292968744C374.81640625,336.9200032552083,374.81640625,347.26200358072913,384.22373295584964,356.2194086092208C393.6310596616993,365.1768136377124,412.4457130733985,372.7496233691749,421.8530397792482,376.53602823490615L431.26036648509785,380.3224331006374" style="fill: none;"/><defs><marker id="arrowhead2724" viewBox="0 0 10 10" refX="9" refY="5" markerUnits="strokeWidth" markerWidth="8" markerHeight="6" orient="auto"><path d="M 0 0 L 10 5 L 0 10 z"/></marker></defs></g><g class="edge"><path class="path" marker-end="url(#arrowhead2725)" d="M528.85546875,345.10400390625L528.85546875,347.1873372395833C528.85546875,349.27067057291663,528.85546875,353.4373372395833,519.4481420441504,359.30707543864787C510.0408153383007,365.1768136377124,491.22616192660143,372.7496233691749,481.8188352207518,376.53602823490615L472.41150851490215,380.3224331006374" style="fill: none;"/><defs><marker id="arrowhead2725" viewBox="0 0 10 10" refX="9" refY="5" markerUnits="strokeWidth" markerWidth="8" markerHeight="6" orient="auto"><path d="M 0 0 L 10 5 L 0 10 z"/></marker></defs></g></g></g><style xmlns="http://www.w3.org/1999/xhtml">.node &gt; .shape {stroke: #555555;stroke-width: 0.6px;fill: #FFFFFF;} path {stroke: #555;background-color: #555;stroke-width: 1px;} .node.state.NotYetStarted &gt; .shape,.node.state.Container &gt; .shape {stroke-dasharray: 5 2;} .node.state.Failed &gt; .shape,rect.legend.Failed {fill: #DE322F;} .node.state.CaughtError &gt; .shape,rect.legend.CaughtError {fill: #FFA500;} .node.state.Succeeded &gt; .shape,rect.legend.Succeeded {fill: #2BD62E;} .node.state.InProgress &gt; .shape,rect.legend.InProgress {fill: #53c9ed;} .node.state.Cancelled &gt; .shape,rect.legend.Cancelled {fill: #dddddd;} .node.anchor &gt; .shape {fill: #FFDA75;} .node.state.hovered:not(.selected):not(.NotYetStarted) &gt; .shape,.node.selected &gt; .shape {stroke: #555555;stroke-width: 2px;} .node.state.Container.Failed &gt; .shape {fill: #EE9592;} .node.state.Container.CaughtError &gt; .shape {fill: #FFD27F;} .node.state.Container.Succeeded &gt; .shape {fill: #91EA9A;} .node.state.Container.InProgress &gt; .shape {fill :#A9E4F7;} .node.state.Container.Cancelled &gt; .shape {fill: #EEEEEE;} marker {fill: #555555;} .node.anchor,.node.state.NotYetStarted {cursor: default;} .node.state {cursor: pointer;} tspan .label {font-weight: normal;font-size: 12px;text-shadow: none;} </style></svg>