<!DOCTYPE svg PUBLIC "-//W3C//DTD SVG 1.1//EN" "https://www.w3.org/Graphics/SVG/1.1/DTD/svg11.dtd"><svg xmlns="http://www.w3.org/2000/svg" id="sfn-svg" class="sfn-workflow-graph" width="389" height="503">
    
    
<g transform="translate(12,19.61328125)"><g class="nodes"><g class="node-container" transform="translate(253.3203125,18.25)"><g class="node anchor"><circle class="shape" x="-15.86328125" y="-8.25" r="25.86328125"/><text class="label"><tspan xml:space="preserve" text-anchor="middle" alignment-baseline="central">Start</tspan></text></g></g><g class="node-container" transform="translate(184.533203125,448.802001953125)"><g class="node anchor"><circle class="shape" x="-12.17578125" y="-8.25" r="22.17578125"/><text class="label"><tspan xml:space="preserve" text-anchor="middle" alignment-baseline="central">End</tspan></text></g></g><g class="node-container" transform="translate(253.3203125,79.75)"><g class="node state Task NotYetStarted"><rect class="shape" rx="5" ry="5" x="-66.91015625" y="-18.25" width="133.8203125" height="36.5"/><text class="label"><tspan xml:space="preserve" text-anchor="middle" alignment-baseline="central">Calculate Metric 1</tspan></text></g></g><g class="node-container" transform="translate(202.365234375,141.25)"><g class="node state Task NotYetStarted"><rect class="shape" rx="5" ry="5" x="-66.91015625" y="-18.25" width="133.8203125" height="36.5"/><text class="label"><tspan xml:space="preserve" text-anchor="middle" alignment-baseline="central">Calculate Metric 2</tspan></text></g></g><g class="node-container" transform="translate(292.107421875,387.302001953125)"><g class="node state Task NotYetStarted"><rect class="shape" rx="5" ry="5" x="-72.57421875" y="-18.25" width="145.1484375" height="36.5"/><text class="label"><tspan xml:space="preserve" text-anchor="middle" alignment-baseline="central">Report Issue to SNS</tspan></text></g></g><g class="node-container" transform="translate(151.41015625,202.75)"><g class="node state Task NotYetStarted"><rect class="shape" rx="5" ry="5" x="-66.91015625" y="-18.25" width="133.8203125" height="36.5"/><text class="label"><tspan xml:space="preserve" text-anchor="middle" alignment-baseline="central">Calculate Metric 3</tspan></text></g></g><g class="node-container" transform="translate(100.005859375,264.25)"><g class="node state Task NotYetStarted"><rect class="shape" rx="5" ry="5" x="-67.80859375" y="-18.25" width="135.6171875" height="36.5"/><text class="label"><tspan xml:space="preserve" text-anchor="middle" alignment-baseline="central">Calculate Metric N</tspan></text></g></g><g class="node-container" transform="translate(55.00390625,325.7760009765625)"><g class="node state Task NotYetStarted"><rect class="shape" rx="5" ry="5" x="-55.00390625" y="-18.2760009765625" width="110.0078125" height="36.552001953125"/><text class="label"><tspan xml:space="preserve" text-anchor="middle" alignment-baseline="central">Merge metrics</tspan></text></g></g></g><g class="edges"><g class="edge"><path class="path" marker-end="url(#arrowhead230)" d="M223.0786807672764,98L219.62643970189697,100.08333333333331C216.1741986365176,102.16666666666666,209.2697165057588,106.33333333333331,205.81747544037938,110.49999999999999C202.365234375,114.66666666666666,202.365234375,118.83333333333333,202.365234375,120.91666666666666L202.365234375,123" style="fill: none;"/><defs><marker id="arrowhead230" viewBox="0 0 10 10" refX="9" refY="5" markerUnits="strokeWidth" markerWidth="8" markerHeight="6" orient="auto"><path d="M 0 0 L 10 5 L 0 10 z"/></marker></defs></g><g class="edge"><path class="path" marker-end="url(#arrowhead231)" d="M311.9500603404472,98L318.6429539295393,100.08333333333331C325.33584751863145,102.16666666666666,338.7216346968157,106.33333333333331,345.41452828590786,113.54166666666666C352.107421875,120.74999999999999,352.107421875,131,352.107421875,141.24999999999997C352.107421875,151.5,352.107421875,161.75,352.107421875,171.99999999999997C352.107421875,182.25,352.107421875,192.5,352.107421875,202.74999999999997C352.107421875,213,352.107421875,223.25,352.107421875,233.49999999999997C352.107421875,243.75,352.107421875,254,352.107421875,264.25C352.107421875,274.5,352.107421875,284.75,352.107421875,295.00433349609375C352.107421875,305.2586669921875,352.107421875,315.517333984375,352.107421875,325.7760009765625C352.107421875,336.03466796875,352.107421875,346.2933349609375,348.0423812245935,353.50600179036456C343.977340574187,360.71866861979163,335.847259273374,364.8853352864583,331.7822186229675,366.9686686197917L327.717177972561,369.052001953125" style="fill: none;"/><defs><marker id="arrowhead231" viewBox="0 0 10 10" refX="9" refY="5" markerUnits="strokeWidth" markerWidth="8" markerHeight="6" orient="auto"><path d="M 0 0 L 10 5 L 0 10 z"/></marker></defs></g><g class="edge"><path class="path" marker-end="url(#arrowhead232)" d="M253.3203125,44.11328125L253.32031249999994,44.92773437499999C253.32031249999997,45.7421875,253.32031249999997,47.37109375,253.32031249999994,50.26888020833333C253.32031249999997,53.166666666666664,253.32031249999997,57.33333333333333,253.32031249999994,59.416666666666664L253.3203125,61.5" style="fill: none;"/><defs><marker id="arrowhead232" viewBox="0 0 10 10" refX="9" refY="5" markerUnits="strokeWidth" markerWidth="8" markerHeight="6" orient="auto"><path d="M 0 0 L 10 5 L 0 10 z"/></marker></defs></g><g class="edge"><path class="path" marker-end="url(#arrowhead233)" d="M172.1236026422764,159.5L168.671361576897,161.58333333333331C165.2191205115176,163.66666666666666,158.3146383807588,167.83333333333331,154.86239731537938,172C151.41015625,176.16666666666666,151.41015625,180.33333333333331,151.41015624999997,182.41666666666666L151.41015625,184.5" style="fill: none;"/><defs><marker id="arrowhead233" viewBox="0 0 10 10" refX="9" refY="5" markerUnits="strokeWidth" markerWidth="8" markerHeight="6" orient="auto"><path d="M 0 0 L 10 5 L 0 10 z"/></marker></defs></g><g class="edge"><path class="path" marker-end="url(#arrowhead234)" d="M252.0925431910569,159.5L257.76917661754743,161.58333333333331C263.4458100440379,163.66666666666666,274.79907689701895,167.83333333333331,280.4757103235095,175.04166666666666C286.15234375,182.25,286.15234375,192.5,286.15234375,202.74999999999997C286.15234375,213,286.15234375,223.25,286.15234375,233.49999999999997C286.15234375,243.75,286.15234375,254,286.15234375,264.25C286.15234375,274.5,286.15234375,284.75,286.15234375,295.00433349609375C286.15234375,305.2586669921875,286.15234375,315.517333984375,286.15234375,325.7760009765625C286.15234375,336.03466796875,286.15234375,346.2933349609375,286.5558043275745,353.50600179036456C286.95926490514904,360.71866861979163,287.7661860602981,364.8853352864583,288.16964663787263,366.9686686197917L288.5731072154472,369.052001953125" style="fill: none;"/><defs><marker id="arrowhead234" viewBox="0 0 10 10" refX="9" refY="5" markerUnits="strokeWidth" markerWidth="8" markerHeight="6" orient="auto"><path d="M 0 0 L 10 5 L 0 10 z"/></marker></defs></g><g class="edge"><path class="path" marker-end="url(#arrowhead235)" d="M120.9019150152439,221L117.41923907520322,223.0833333333333C113.93656313516259,225.16666666666663,106.97121125508129,229.33333333333331,103.48853531504062,233.5C100.00585937499999,237.66666666666666,100.00585937499999,241.83333333333331,100.00585937499997,243.91666666666666L100.005859375,246" style="fill: none;"/><defs><marker id="arrowhead235" viewBox="0 0 10 10" refX="9" refY="5" markerUnits="strokeWidth" markerWidth="8" markerHeight="6" orient="auto"><path d="M 0 0 L 10 5 L 0 10 z"/></marker></defs></g><g class="edge"><path class="path" marker-end="url(#arrowhead236)" d="M192.23502604166666,221L196.89539930555554,223.0833333333333C201.55577256944443,225.16666666666663,210.8765190972222,229.33333333333331,215.5368923611111,236.54166666666666C220.19726562499997,243.75,220.19726562499997,254,220.19726562499994,264.25C220.19726562499997,274.5,220.19726562499997,284.75,220.19726562499994,295.00433349609375C220.19726562499997,305.2586669921875,220.19726562499997,315.517333984375,220.19726562499994,325.7760009765625C220.19726562499997,336.03466796875,220.19726562499997,346.2933349609375,225.06922743055551,353.50600179036456C229.9411892361111,360.71866861979163,239.6851128472222,364.8853352864583,244.55707465277774,366.9686686197917L249.42903645833334,369.052001953125" style="fill: none;"/><defs><marker id="arrowhead236" viewBox="0 0 10 10" refX="9" refY="5" markerUnits="strokeWidth" markerWidth="8" markerHeight="6" orient="auto"><path d="M 0 0 L 10 5 L 0 10 z"/></marker></defs></g><g class="edge"><path class="path" marker-end="url(#arrowhead237)" d="M73.2973831300813,282.5L70.24847031673441,284.5833333333333C67.19955750338752,286.66666666666663,61.10173187669376,290.8333333333333,58.052819063346874,295C55.00390624999999,299.16666666666663,55.00390624999999,303.3333333333333,55.003906249999986,305.41666666666663L55.00390625,307.5" style="fill: none;"/><defs><marker id="arrowhead237" viewBox="0 0 10 10" refX="9" refY="5" markerUnits="strokeWidth" markerWidth="8" markerHeight="6" orient="auto"><path d="M 0 0 L 10 5 L 0 10 z"/></marker></defs></g><g class="edge"><path class="path" marker-end="url(#arrowhead238)" d="M131.9282901422764,282.5L135.57240324356368,284.5833333333333C139.21651634485093,286.66666666666663,146.50474254742545,290.8333333333333,150.14885564871273,298.04600016276044C153.79296875,305.2586669921875,153.79296875,315.517333984375,153.79296875,325.7760009765625C153.79296875,336.03466796875,153.79296875,346.2933349609375,164.74967447916666,353.8585577915131C175.70638020833331,361.42378062208866,197.61979166666666,366.2955592910523,208.57649739583334,368.73144862553414L219.533203125,371.16733796001597" style="fill: none;"/><defs><marker id="arrowhead238" viewBox="0 0 10 10" refX="9" refY="5" markerUnits="strokeWidth" markerWidth="8" markerHeight="6" orient="auto"><path d="M 0 0 L 10 5 L 0 10 z"/></marker></defs></g><g class="edge"><path class="path" marker-end="url(#arrowhead239)" d="M46.096315726552554,344.052001953125L45.08091414712713,346.1353352864583C44.0655125677017,348.21866861979163,42.03470940885085,352.3853352864583,70.94085730859209,358.1183108875853C99.84700520833333,363.8512864887123,159.69010416666666,371.15057102429955,189.61165364583334,374.8002132920932L219.533203125,378.4498555598868" style="fill: none;"/><defs><marker id="arrowhead239" viewBox="0 0 10 10" refX="9" refY="5" markerUnits="strokeWidth" markerWidth="8" markerHeight="6" orient="auto"><path d="M 0 0 L 10 5 L 0 10 z"/></marker></defs></g><g class="edge"><path class="path" marker-end="url(#arrowhead240)" d="M63.911496773447446,344.052001953125L64.92689835287287,346.1353352864583C65.94229993229828,348.21866861979163,67.97310309114914,352.3853352864583,68.98850467057457,359.59366861979163C70.00390625,366.802001953125,70.00390625,377.05200195312494,70.00390624999999,387.302001953125C70.00390625,397.55200195312494,70.00390625,407.80200195312494,85.52257904830057,417.0936143533439C101.04125184660117,426.385226753563,132.07859744320234,434.7184515540011,147.5972702415029,438.8850639542201L163.1159430398035,443.0516763544392" style="fill: none;"/><defs><marker id="arrowhead240" viewBox="0 0 10 10" refX="9" refY="5" markerUnits="strokeWidth" markerWidth="8" markerHeight="6" orient="auto"><path d="M 0 0 L 10 5 L 0 10 z"/></marker></defs></g><g class="edge"><path class="path" marker-end="url(#arrowhead241)" d="M292.107421875,405.552001953125L292.107421875,407.63533528645826C292.107421875,409.71866861979163,292.107421875,413.88533528645826,277.7320162387392,420.0778662365767C263.35661060247844,426.27039718669516,234.6057993299569,434.4887924202654,220.23039369369613,438.59799003705047L205.85498805743538,442.7071876538356" style="fill: none;"/><defs><marker id="arrowhead241" viewBox="0 0 10 10" refX="9" refY="5" markerUnits="strokeWidth" markerWidth="8" markerHeight="6" orient="auto"><path d="M 0 0 L 10 5 L 0 10 z"/></marker></defs></g></g></g><style xmlns="http://www.w3.org/1999/xhtml">.node &gt; .shape {stroke: #555555;stroke-width: 0.6px;fill: #FFFFFF;} path {stroke: #555;background-color: #555;stroke-width: 1px;} .node.state.NotYetStarted &gt; .shape,.node.state.Container &gt; .shape {stroke-dasharray: 5 2;} .node.state.Failed &gt; .shape,rect.legend.Failed {fill: #DE322F;} .node.state.CaughtError &gt; .shape,rect.legend.CaughtError {fill: #FFA500;} .node.state.Succeeded &gt; .shape,rect.legend.Succeeded {fill: #2BD62E;} .node.state.InProgress &gt; .shape,rect.legend.InProgress {fill: #53c9ed;} .node.state.Cancelled &gt; .shape,rect.legend.Cancelled {fill: #dddddd;} .node.anchor &gt; .shape {fill: #FFDA75;} .node.state.hovered:not(.selected):not(.NotYetStarted) &gt; .shape,.node.selected &gt; .shape {stroke: #555555;stroke-width: 2px;} .node.state.Container.Failed &gt; .shape {fill: #EE9592;} .node.state.Container.CaughtError &gt; .shape {fill: #FFD27F;} .node.state.Container.Succeeded &gt; .shape {fill: #91EA9A;} .node.state.Container.InProgress &gt; .shape {fill :#A9E4F7;} .node.state.Container.Cancelled &gt; .shape {fill: #EEEEEE;} marker {fill: #555555;} .node.anchor,.node.state.NotYetStarted {cursor: default;} .node.state {cursor: pointer;} tspan .label {font-weight: normal;font-size: 12px;text-shadow: none;} </style></svg>