<!DOCTYPE svg PUBLIC "-//W3C//DTD SVG 1.1//EN" "https://www.w3.org/Graphics/SVG/1.1/DTD/svg11.dtd"><svg xmlns="http://www.w3.org/2000/svg" id="sfn-svg" class="sfn-workflow-graph" width="928" height="691">
    
    
<g transform="translate(12,19.3671875)"><g class="nodes"><g class="node-container" transform="translate(451.8359375,18.5)"><g class="node anchor"><circle class="shape" x="-15.8671875" y="-8.5" r="25.8671875"/><text class="label"><tspan xml:space="preserve" text-anchor="middle" alignment-baseline="central">Start</tspan></text></g></g><g class="node-container" transform="translate(451.8359375,636.6560039520264)"><g class="node anchor"><circle class="shape" x="-12.1796875" y="-8.5" r="22.1796875"/><text class="label"><tspan xml:space="preserve" text-anchor="middle" alignment-baseline="central">End</tspan></text></g></g><g class="node-container" transform="translate(451.8359375,80.5)"><g class="node state Choice NotYetStarted"><rect class="shape" rx="5" ry="5" x="-86.2890625" y="-18.5" width="172.578125" height="37"/><text class="label"><tspan xml:space="preserve" text-anchor="middle" alignment-baseline="central">MetricDate not Present?</tspan></text></g></g><g class="node-container" transform="translate(508.9765625,142.52600002288818)"><g class="node state Pass NotYetStarted"><rect class="shape" rx="5" ry="5" x="-79.28125" y="-18.526000022888184" width="158.5625" height="37.05200004577637"/><text class="label"><tspan xml:space="preserve" text-anchor="middle" alignment-baseline="central">Set empty MetricDate</tspan></text></g></g><g class="node-container" transform="translate(451.8359375,296.55200004577637)"><g class="node state Parallel NotYetStarted Container" transform="translate(-451.8359375,-110.5)"><rect class="shape" rx="44.2" ry="44.2" x="0" y="0" width="903.671875" height="221"/><g class="branches" transform="translate(20,40)"><g class="branch" transform="translate(0,0)"><g class="nodes"><g class="node-container" transform="translate(100.234375,18.5)"><g class="node state Pass NotYetStarted"><rect class="shape" rx="5" ry="5" x="-82.9609375" y="-18.5" width="165.921875" height="37"/><text class="label"><tspan xml:space="preserve" text-anchor="middle" alignment-baseline="central">Pre process params M1</tspan></text></g></g><g class="node-container" transform="translate(100.234375,80.5)"><g class="node state Task NotYetStarted"><rect class="shape" rx="5" ry="5" x="-66.9140625" y="-18.5" width="133.828125" height="37"/><text class="label"><tspan xml:space="preserve" text-anchor="middle" alignment-baseline="central">Calculate Metric 1</tspan></text></g></g><g class="node-container" transform="translate(100.234375,142.5)"><g class="node state Task NotYetStarted"><rect class="shape" rx="5" ry="5" x="-100.234375" y="-18.5" width="200.46875" height="37"/><text class="label"><tspan xml:space="preserve" text-anchor="middle" alignment-baseline="central">Report Metric 1 Issue to SNS</tspan></text></g></g></g><g class="edges"><g class="edge"><path class="path" marker-end="url(#arrowhead2301)" d="M100.234375,37L100.23437499999997,39.08333333333333C100.23437499999999,41.166666666666664,100.23437499999999,45.33333333333333,100.23437499999997,49.5C100.23437499999999,53.666666666666664,100.23437499999999,57.83333333333333,100.23437499999997,59.91666666666666L100.234375,62" style="fill: none;"/><defs><marker id="arrowhead2301" viewBox="0 0 10 10" refX="9" refY="5" markerUnits="strokeWidth" markerWidth="8" markerHeight="6" orient="auto"><path d="M 0 0 L 10 5 L 0 10 z"/></marker></defs></g><g class="edge"><path class="path" marker-end="url(#arrowhead2302)" d="M100.234375,99L100.23437499999997,101.08333333333333C100.23437499999999,103.16666666666666,100.23437499999999,107.33333333333333,100.23437499999997,111.5C100.23437499999999,115.66666666666666,100.23437499999999,119.83333333333331,100.23437499999997,121.91666666666666L100.234375,124" style="fill: none;"/><defs><marker id="arrowhead2302" viewBox="0 0 10 10" refX="9" refY="5" markerUnits="strokeWidth" markerWidth="8" markerHeight="6" orient="auto"><path d="M 0 0 L 10 5 L 0 10 z"/></marker></defs></g></g></g><g class="branch" transform="translate(220.46875,0)"><g class="nodes"><g class="node-container" transform="translate(100.234375,18.5)"><g class="node state Pass NotYetStarted"><rect class="shape" rx="5" ry="5" x="-82.9609375" y="-18.5" width="165.921875" height="37"/><text class="label"><tspan xml:space="preserve" text-anchor="middle" alignment-baseline="central">Pre process params M2</tspan></text></g></g><g class="node-container" transform="translate(100.234375,80.5)"><g class="node state Task NotYetStarted"><rect class="shape" rx="5" ry="5" x="-66.9140625" y="-18.5" width="133.828125" height="37"/><text class="label"><tspan xml:space="preserve" text-anchor="middle" alignment-baseline="central">Calculate Metric 2</tspan></text></g></g><g class="node-container" transform="translate(100.234375,142.5)"><g class="node state Task NotYetStarted"><rect class="shape" rx="5" ry="5" x="-100.234375" y="-18.5" width="200.46875" height="37"/><text class="label"><tspan xml:space="preserve" text-anchor="middle" alignment-baseline="central">Report Metric 2 Issue to SNS</tspan></text></g></g></g><g class="edges"><g class="edge"><path class="path" marker-end="url(#arrowhead2303)" d="M100.234375,37L100.23437499999997,39.08333333333333C100.23437499999999,41.166666666666664,100.23437499999999,45.33333333333333,100.23437499999997,49.5C100.23437499999999,53.666666666666664,100.23437499999999,57.83333333333333,100.23437499999997,59.91666666666666L100.234375,62" style="fill: none;"/><defs><marker id="arrowhead2303" viewBox="0 0 10 10" refX="9" refY="5" markerUnits="strokeWidth" markerWidth="8" markerHeight="6" orient="auto"><path d="M 0 0 L 10 5 L 0 10 z"/></marker></defs></g><g class="edge"><path class="path" marker-end="url(#arrowhead2304)" d="M100.234375,99L100.23437499999997,101.08333333333333C100.23437499999999,103.16666666666666,100.23437499999999,107.33333333333333,100.23437499999997,111.5C100.23437499999999,115.66666666666666,100.23437499999999,119.83333333333331,100.23437499999997,121.91666666666666L100.234375,124" style="fill: none;"/><defs><marker id="arrowhead2304" viewBox="0 0 10 10" refX="9" refY="5" markerUnits="strokeWidth" markerWidth="8" markerHeight="6" orient="auto"><path d="M 0 0 L 10 5 L 0 10 z"/></marker></defs></g></g></g><g class="branch" transform="translate(440.9375,0)"><g class="nodes"><g class="node-container" transform="translate(100.234375,18.5)"><g class="node state Pass NotYetStarted"><rect class="shape" rx="5" ry="5" x="-82.9609375" y="-18.5" width="165.921875" height="37"/><text class="label"><tspan xml:space="preserve" text-anchor="middle" alignment-baseline="central">Pre process params M3</tspan></text></g></g><g class="node-container" transform="translate(100.234375,80.5)"><g class="node state Task NotYetStarted"><rect class="shape" rx="5" ry="5" x="-66.9140625" y="-18.5" width="133.828125" height="37"/><text class="label"><tspan xml:space="preserve" text-anchor="middle" alignment-baseline="central">Calculate Metric 3</tspan></text></g></g><g class="node-container" transform="translate(100.234375,142.5)"><g class="node state Task NotYetStarted"><rect class="shape" rx="5" ry="5" x="-100.234375" y="-18.5" width="200.46875" height="37"/><text class="label"><tspan xml:space="preserve" text-anchor="middle" alignment-baseline="central">Report Metric 3 Issue to SNS</tspan></text></g></g></g><g class="edges"><g class="edge"><path class="path" marker-end="url(#arrowhead2305)" d="M100.234375,37L100.23437499999997,39.08333333333333C100.23437499999999,41.166666666666664,100.23437499999999,45.33333333333333,100.23437499999997,49.5C100.23437499999999,53.666666666666664,100.23437499999999,57.83333333333333,100.23437499999997,59.91666666666666L100.234375,62" style="fill: none;"/><defs><marker id="arrowhead2305" viewBox="0 0 10 10" refX="9" refY="5" markerUnits="strokeWidth" markerWidth="8" markerHeight="6" orient="auto"><path d="M 0 0 L 10 5 L 0 10 z"/></marker></defs></g><g class="edge"><path class="path" marker-end="url(#arrowhead2306)" d="M100.234375,99L100.23437499999997,101.08333333333333C100.23437499999999,103.16666666666666,100.23437499999999,107.33333333333333,100.23437499999997,111.5C100.23437499999999,115.66666666666666,100.23437499999999,119.83333333333331,100.23437499999997,121.91666666666666L100.234375,124" style="fill: none;"/><defs><marker id="arrowhead2306" viewBox="0 0 10 10" refX="9" refY="5" markerUnits="strokeWidth" markerWidth="8" markerHeight="6" orient="auto"><path d="M 0 0 L 10 5 L 0 10 z"/></marker></defs></g></g></g><g class="branch" transform="translate(661.40625,0)"><g class="nodes"><g class="node-container" transform="translate(101.1328125,18.5)"><g class="node state Pass NotYetStarted"><rect class="shape" rx="5" ry="5" x="-83.8515625" y="-18.5" width="167.703125" height="37"/><text class="label"><tspan xml:space="preserve" text-anchor="middle" alignment-baseline="central">Pre process params MN</tspan></text></g></g><g class="node-container" transform="translate(101.1328125,80.5)"><g class="node state Task NotYetStarted"><rect class="shape" rx="5" ry="5" x="-67.8125" y="-18.5" width="135.625" height="37"/><text class="label"><tspan xml:space="preserve" text-anchor="middle" alignment-baseline="central">Calculate Metric N</tspan></text></g></g><g class="node-container" transform="translate(101.1328125,142.5)"><g class="node state Task NotYetStarted"><rect class="shape" rx="5" ry="5" x="-101.1328125" y="-18.5" width="202.265625" height="37"/><text class="label"><tspan xml:space="preserve" text-anchor="middle" alignment-baseline="central">Report Metric N Issue to SNS</tspan></text></g></g></g><g class="edges"><g class="edge"><path class="path" marker-end="url(#arrowhead2307)" d="M101.1328125,37L101.1328125,39.08333333333333C101.1328125,41.166666666666664,101.1328125,45.33333333333333,101.1328125,49.5C101.1328125,53.666666666666664,101.1328125,57.83333333333333,101.1328125,59.91666666666666L101.1328125,62" style="fill: none;"/><defs><marker id="arrowhead2307" viewBox="0 0 10 10" refX="9" refY="5" markerUnits="strokeWidth" markerWidth="8" markerHeight="6" orient="auto"><path d="M 0 0 L 10 5 L 0 10 z"/></marker></defs></g><g class="edge"><path class="path" marker-end="url(#arrowhead2308)" d="M101.1328125,99L101.1328125,101.08333333333333C101.1328125,103.16666666666666,101.1328125,107.33333333333333,101.1328125,111.5C101.1328125,115.66666666666666,101.1328125,119.83333333333331,101.1328125,121.91666666666666L101.1328125,124" style="fill: none;"/><defs><marker id="arrowhead2308" viewBox="0 0 10 10" refX="9" refY="5" markerUnits="strokeWidth" markerWidth="8" markerHeight="6" orient="auto"><path d="M 0 0 L 10 5 L 0 10 z"/></marker></defs></g></g></g></g><path class="path" marker-end="url(#arrowhead2309)" d="M451.8359375,0L451.83593749999994,3.333333333333333C451.8359375,6.666666666666666,451.8359375,13.333333333333332,396.56901041666663,16.666666666666664C341.3020833333333,20,230.76822916666666,20,175.50130208333331,23.33333333333333C120.234375,26.666666666666664,120.234375,33.33333333333333,120.234375,36.666666666666664L120.234375,40" style="fill: none;"/><path class="path" marker-end="url(#arrowhead2310)" d="M451.8359375,0L451.83593749999994,3.333333333333333C451.8359375,6.666666666666666,451.8359375,13.333333333333332,433.3138020833333,16.666666666666664C414.79166666666663,20,377.7473958333333,20,359.2252604166667,23.33333333333333C340.703125,26.666666666666664,340.703125,33.33333333333333,340.703125,36.666666666666664L340.703125,40" style="fill: none;"/><path class="path" marker-end="url(#arrowhead2311)" d="M451.8359375,0L451.83593749999994,3.333333333333333C451.8359375,6.666666666666666,451.8359375,13.333333333333332,470.05859374999994,16.666666666666664C488.28125,20,524.7265625,20,542.94921875,23.33333333333333C561.171875,26.666666666666664,561.171875,33.33333333333333,561.171875,36.666666666666664L561.171875,40" style="fill: none;"/><path class="path" marker-end="url(#arrowhead2312)" d="M451.8359375,0L451.83593749999994,3.333333333333333C451.8359375,6.666666666666666,451.8359375,13.333333333333332,506.95312499999994,16.666666666666664C562.0703125,20,672.3046874999999,20,727.421875,23.33333333333333C782.5390624999999,26.666666666666664,782.5390624999999,33.33333333333333,782.5390624999998,36.666666666666664L782.5390625,40" style="fill: none;"/></g></g><g class="node-container" transform="translate(451.8359375,450.57800102233887)"><g class="node state Pass NotYetStarted"><rect class="shape" rx="5" ry="5" x="-117.609375" y="-18.5260009765625" width="235.21875" height="37.052001953125"/><text class="label"><tspan xml:space="preserve" text-anchor="middle" alignment-baseline="central">Pre process params Merge Metrics</tspan></text></g></g><g class="node-container" transform="translate(451.8359375,512.6300029754639)"><g class="node state Task NotYetStarted"><rect class="shape" rx="5" ry="5" x="-55.0078125" y="-18.5260009765625" width="110.015625" height="37.052001953125"/><text class="label"><tspan xml:space="preserve" text-anchor="middle" alignment-baseline="central">Merge metrics</tspan></text></g></g><g class="node-container" transform="translate(505.625,574.6560039520264)"><g class="node state Task NotYetStarted"><rect class="shape" rx="5" ry="5" x="-72.578125" y="-18.5" width="145.15625" height="37"/><text class="label"><tspan xml:space="preserve" text-anchor="middle" alignment-baseline="central">Report Issue to SNS</tspan></text></g></g></g><g class="edges"><g class="edge"><path class="path" marker-end="url(#arrowhead2313)" d="M485.9359879032258,99L489.77608366935476,101.08333333333333C493.6161794354838,103.16666666666666,501.2963709677419,107.33333333333333,505.1364667338709,111.5C508.9765625,115.66666666666666,508.9765625,119.83333333333331,508.97656249999994,121.91666666666666L508.9765625,124" style="fill: none;"/><defs><marker id="arrowhead2313" viewBox="0 0 10 10" refX="9" refY="5" markerUnits="strokeWidth" markerWidth="8" markerHeight="6" orient="auto"><path d="M 0 0 L 10 5 L 0 10 z"/></marker></defs></g><g class="edge"><path class="path" marker-end="url(#arrowhead2314)" d="M417.7358870967742,99L413.8957913306452,101.08333333333333C410.0556955645161,103.16666666666666,402.37550403225805,107.33333333333333,398.53540826612897,114.58766667048135C394.6953125,121.8420000076294,394.6953125,132.1840000152588,394.69531249999994,142.52600002288818C394.6953125,152.86800003051758,394.6953125,163.21000003814697,404.21874999999994,170.46433337529498C413.7421875,177.71866671244302,432.7890625,181.88533337910968,442.31249999999994,183.96866671244302L451.8359375,186.05200004577637" style="fill: none;"/><defs><marker id="arrowhead2314" viewBox="0 0 10 10" refX="9" refY="5" markerUnits="strokeWidth" markerWidth="8" markerHeight="6" orient="auto"><path d="M 0 0 L 10 5 L 0 10 z"/></marker></defs></g><g class="edge"><path class="path" marker-end="url(#arrowhead2315)" d="M451.8359375,44.3671875L451.83593749999994,45.22265625C451.8359375,46.078125,451.8359375,47.7890625,451.83593749999994,50.72786458333333C451.8359375,53.666666666666664,451.8359375,57.83333333333333,451.83593749999994,59.91666666666666L451.8359375,62" style="fill: none;"/><defs><marker id="arrowhead2315" viewBox="0 0 10 10" refX="9" refY="5" markerUnits="strokeWidth" markerWidth="8" markerHeight="6" orient="auto"><path d="M 0 0 L 10 5 L 0 10 z"/></marker></defs></g><g class="edge"><path class="path" marker-end="url(#arrowhead2316)" d="M508.9765625,161.05200004577637L508.97656249999994,163.1353333791097C508.9765625,165.21866671244302,508.9765625,169.38533337910968,499.45312499999994,173.55200004577634C489.9296875,177.71866671244302,470.8828125,181.88533337910968,461.35937499999994,183.96866671244302L451.8359375,186.05200004577637" style="fill: none;"/><defs><marker id="arrowhead2316" viewBox="0 0 10 10" refX="9" refY="5" markerUnits="strokeWidth" markerWidth="8" markerHeight="6" orient="auto"><path d="M 0 0 L 10 5 L 0 10 z"/></marker></defs></g><g class="edge"><path class="path" marker-end="url(#arrowhead2317)" d="M451.8359375,407.05200004577637L451.83593749999994,409.1353333791097C451.8359375,411.218666712443,451.8359375,415.3853333791097,451.83593749999994,419.55200004577637C451.8359375,423.718666712443,451.8359375,427.8853333791096,451.83593749999994,429.968666712443L451.8359375,432.05200004577637" style="fill: none;"/><defs><marker id="arrowhead2317" viewBox="0 0 10 10" refX="9" refY="5" markerUnits="strokeWidth" markerWidth="8" markerHeight="6" orient="auto"><path d="M 0 0 L 10 5 L 0 10 z"/></marker></defs></g><g class="edge"><path class="path" marker-end="url(#arrowhead2318)" d="M451.8359375,469.10400199890137L451.83593749999994,471.1873353322346C451.8359375,473.270668665568,451.8359375,477.4373353322346,451.83593749999994,481.6040019989013C451.8359375,485.770668665568,451.8359375,489.9373353322347,451.83593749999994,492.020668665568L451.8359375,494.10400199890137" style="fill: none;"/><defs><marker id="arrowhead2318" viewBox="0 0 10 10" refX="9" refY="5" markerUnits="strokeWidth" markerWidth="8" markerHeight="6" orient="auto"><path d="M 0 0 L 10 5 L 0 10 z"/></marker></defs></g><g class="edge"><path class="path" marker-end="url(#arrowhead2319)" d="M483.95403822320145,531.1560039520264L487.5658651860012,533.2393372853596C491.17769214880093,535.322670618693,498.40134607440046,539.4893372853596,502.0131730372002,543.6560039520264C505.625,547.822670618693,505.625,551.9893372853596,505.62499999999994,554.072670618693L505.625,556.1560039520264" style="fill: none;"/><defs><marker id="arrowhead2319" viewBox="0 0 10 10" refX="9" refY="5" markerUnits="strokeWidth" markerWidth="8" markerHeight="6" orient="auto"><path d="M 0 0 L 10 5 L 0 10 z"/></marker></defs></g><g class="edge"><path class="path" marker-end="url(#arrowhead2320)" d="M419.71783677679855,531.1560039520264L416.1060098139987,533.2393372853596C412.49418285119896,535.322670618693,405.2705289255995,539.4893372853596,401.65870196279974,546.7393372853596C398.046875,553.9893372853596,398.046875,564.322670618693,398.04687499999994,574.6560039520264C398.046875,584.9893372853596,398.046875,595.322670618693,403.80893614788306,603.8101591640525C409.57099729576623,612.2976477094121,421.09511959153247,618.9392914667977,426.85718073941564,622.2601133454907L432.61924188729876,625.5809352241835" style="fill: none;"/><defs><marker id="arrowhead2320" viewBox="0 0 10 10" refX="9" refY="5" markerUnits="strokeWidth" markerWidth="8" markerHeight="6" orient="auto"><path d="M 0 0 L 10 5 L 0 10 z"/></marker></defs></g><g class="edge"><path class="path" marker-end="url(#arrowhead2321)" d="M505.625,593.1560039520264L505.62499999999994,595.2393372853597C505.625,597.322670618693,505.625,601.4893372853596,499.8629388521168,606.8934924973859C494.1008777042337,612.2976477094121,482.5767554084674,618.9392914667977,476.8146942605843,622.2601133454907L471.05263311270124,625.5809352241835" style="fill: none;"/><defs><marker id="arrowhead2321" viewBox="0 0 10 10" refX="9" refY="5" markerUnits="strokeWidth" markerWidth="8" markerHeight="6" orient="auto"><path d="M 0 0 L 10 5 L 0 10 z"/></marker></defs></g></g></g><style xmlns="http://www.w3.org/1999/xhtml">.node &gt; .shape {stroke: #555555;stroke-width: 0.6px;fill: #FFFFFF;} path {stroke: #555;background-color: #555;stroke-width: 1px;} .node.state.NotYetStarted &gt; .shape,.node.state.Container &gt; .shape {stroke-dasharray: 5 2;} .node.state.Failed &gt; .shape,rect.legend.Failed {fill: #DE322F;} .node.state.CaughtError &gt; .shape,rect.legend.CaughtError {fill: #FFA500;} .node.state.Succeeded &gt; .shape,rect.legend.Succeeded {fill: #2BD62E;} .node.state.InProgress &gt; .shape,rect.legend.InProgress {fill: #53c9ed;} .node.state.Cancelled &gt; .shape,rect.legend.Cancelled {fill: #dddddd;} .node.anchor &gt; .shape {fill: #FFDA75;} .node.state.hovered:not(.selected):not(.NotYetStarted) &gt; .shape,.node.selected &gt; .shape {stroke: #555555;stroke-width: 2px;} .node.state.Container.Failed &gt; .shape {fill: #EE9592;} .node.state.Container.CaughtError &gt; .shape {fill: #FFD27F;} .node.state.Container.Succeeded &gt; .shape {fill: #91EA9A;} .node.state.Container.InProgress &gt; .shape {fill :#A9E4F7;} .node.state.Container.Cancelled &gt; .shape {fill: #EEEEEE;} marker {fill: #555555;} .node.anchor,.node.state.NotYetStarted {cursor: default;} .node.state {cursor: pointer;} tspan .label {font-weight: normal;font-size: 12px;text-shadow: none;} </style></svg>